<svg width="75" height="75" viewBox="0 0 75 75" fill="none" xmlns="http://www.w3.org/2000/svg">
<g clip-path="url(#clip0_124_567)">
<path d="M75 66.6666C75 68.8768 74.122 70.9964 72.5592 72.5592C70.9964 74.122 68.8768 75 66.6667 75H8.33333C6.1232 75 4.00358 74.122 2.44078 72.5592C0.877974 70.9964 0 68.8768 0 66.6666V47.9166C0 43.3145 1.64792 41.6666 6.25 41.6666H68.75C73.3521 41.6666 75 43.3145 75 47.9166V66.6666Z" fill="#D99E82"/>
<path d="M52.0832 41.6666C52.0832 43.5817 51.706 45.4781 50.9731 47.2474C50.2402 49.0168 49.166 50.6244 47.8118 51.9786C46.4576 53.3328 44.85 54.407 43.0806 55.1399C41.3113 55.8728 39.4149 56.25 37.4998 56.25C35.5847 56.25 33.6884 55.8728 31.919 55.1399C30.1497 54.407 28.5421 53.3328 27.1879 51.9786C25.8337 50.6244 24.7595 49.0168 24.0266 47.2474C23.2937 45.4781 22.9165 43.5817 22.9165 41.6666H52.0832Z" fill="#662113"/>
<path d="M8.33333 75H66.6667C68.8768 75 70.9964 74.122 72.5592 72.5592C74.122 70.9964 75 68.8768 75 66.6666H0C0 68.8768 0.877974 70.9964 2.44078 72.5592C4.00358 74.122 6.1232 75 8.33333 75Z" fill="#C1694F"/>
<path d="M55.6586 16.6667H45.694V4.16667C45.694 3.0616 45.255 2.00179 44.4736 1.22039C43.6922 0.438987 42.6324 0 41.5273 0L33.1919 0C32.0872 0.000552354 31.0279 0.439783 30.247 1.22112C29.466 2.00247 29.0273 3.06196 29.0273 4.16667V16.6667H19.0586C16.5106 16.6667 15.9002 17.9646 17.7023 19.7688L34.0836 36.15C35.8856 37.9521 38.8336 37.9521 40.6377 36.15L57.019 19.7688C58.8169 17.9646 58.2086 16.6667 55.6586 16.6667Z" fill="#77B255"/>
</g>
<defs>
<clipPath id="clip0_124_567">
<rect width="75" height="75" fill="white"/>
</clipPath>
</defs>
</svg>
