<svg width="28" height="28" viewBox="0 0 28 28" fill="none" xmlns="http://www.w3.org/2000/svg">
<path d="M12.32 22.9404C9.24 22.9404 6.51728 21.3634 4.928 18.998C4.96496 16.534 9.856 15.1788 12.32 15.1788C14.784 15.1788 19.675 16.534 19.712 18.998C18.8975 20.2108 17.7973 21.2047 16.5083 21.8922C15.2192 22.5797 13.7809 22.9396 12.32 22.9404ZM12.32 5.446C13.3002 5.446 14.2403 5.8354 14.9335 6.52853C15.6266 7.22167 16.016 8.16176 16.016 9.142C16.016 10.1222 15.6266 11.0623 14.9335 11.7555C14.2403 12.4486 13.3002 12.838 12.32 12.838C11.3398 12.838 10.3997 12.4486 9.70653 11.7555C9.0134 11.0623 8.624 10.1222 8.624 9.142C8.624 8.16176 9.0134 7.22167 9.70653 6.52853C10.3997 5.8354 11.3398 5.446 12.32 5.446ZM12.32 1.75C10.7021 1.75 9.10007 2.06867 7.60534 2.6878C6.11061 3.30694 4.75246 4.21443 3.60844 5.35844C1.298 7.66889 0 10.8025 0 14.07C0 17.3375 1.298 20.4711 3.60844 22.7816C4.75246 23.9256 6.11061 24.8331 7.60534 25.4522C9.10007 26.0713 10.7021 26.39 12.32 26.39C15.5875 26.39 18.7211 25.092 21.0316 22.7816C23.342 20.4711 24.64 17.3375 24.64 14.07C24.64 7.25704 19.096 1.75 12.32 1.75Z" fill="#5F5F5F" fill-opacity="0.6"/>
</svg>
