<svg width="13" height="13" viewBox="0 0 13 13" fill="none" xmlns="http://www.w3.org/2000/svg">
<path fill-rule="evenodd" clip-rule="evenodd" d="M8.86399 4.72725C8.86399 5.35413 8.61497 5.95533 8.1717 6.3986C7.72843 6.84186 7.12723 7.09089 6.50036 7.09089C5.87348 7.09089 5.27228 6.84186 4.82901 6.3986C4.38574 5.95533 4.13672 5.35413 4.13672 4.72725C4.13672 4.10038 4.38574 3.49918 4.82901 3.05591C5.27228 2.61264 5.87348 2.36362 6.50036 2.36362C7.12723 2.36362 7.72843 2.61264 8.1717 3.05591C8.61497 3.49918 8.86399 4.10038 8.86399 4.72725ZM7.68217 4.72725C7.68217 5.04069 7.55766 5.34129 7.33603 5.56292C7.11439 5.78456 6.81379 5.90907 6.50036 5.90907C6.18692 5.90907 5.88632 5.78456 5.66468 5.56292C5.44305 5.34129 5.31854 5.04069 5.31854 4.72725C5.31854 4.41382 5.44305 4.11322 5.66468 3.89158C5.88632 3.66995 6.18692 3.54544 6.50036 3.54544C6.81379 3.54544 7.11439 3.66995 7.33603 3.89158C7.55766 4.11322 7.68217 4.41382 7.68217 4.72725Z" fill="#9DACC3"/>
<path fill-rule="evenodd" clip-rule="evenodd" d="M6.5 0C2.91023 0 0 2.91023 0 6.5C0 10.0898 2.91023 13 6.5 13C10.0898 13 13 10.0898 13 6.5C13 2.91023 10.0898 0 6.5 0ZM1.18182 6.5C1.18182 7.735 1.60314 8.87191 2.30927 9.77482C2.80518 9.12358 3.44494 8.5958 4.17857 8.23273C4.91221 7.86965 5.71985 7.68111 6.53841 7.68182C7.34638 7.68105 8.14386 7.86472 8.8701 8.21883C9.59633 8.57293 10.2322 9.08814 10.7291 9.72518C11.2411 9.05367 11.5859 8.2699 11.7348 7.43871C11.8837 6.60752 11.8326 5.75282 11.5857 4.94531C11.3387 4.1378 10.903 3.40071 10.3146 2.79502C9.72622 2.18933 9.00206 1.73246 8.20204 1.46221C7.40203 1.19196 6.54916 1.11609 5.71401 1.24089C4.87885 1.36569 4.08542 1.68757 3.39936 2.1799C2.7133 2.67222 2.15434 3.32083 1.76873 4.07207C1.38311 4.82331 1.18192 5.65557 1.18182 6.5ZM6.5 11.8182C5.27915 11.82 4.09516 11.4 3.14836 10.6293C3.52946 10.0837 4.0367 9.63827 4.62693 9.33086C5.21716 9.02345 5.87292 8.86316 6.53841 8.86364C7.19559 8.86311 7.84342 9.01938 8.42809 9.31948C9.01276 9.61957 9.5174 10.0548 9.90009 10.5891C8.94595 11.3849 7.74244 11.8199 6.5 11.8182Z" fill="#9DACC3"/>
</svg>
