<svg width="13" height="13" viewBox="0 0 13 13" fill="none" xmlns="http://www.w3.org/2000/svg">
<path d="M4.72139 13L4.46269 10.92C4.32255 10.8658 4.1904 10.8008 4.06622 10.725C3.94204 10.6492 3.82088 10.5679 3.70274 10.4812L1.77861 11.2937L0 8.20625L1.66542 6.93875C1.65464 6.86292 1.64925 6.78968 1.64925 6.71905V6.28095C1.64925 6.21032 1.65464 6.13708 1.66542 6.06125L0 4.79375L1.77861 1.70625L3.70274 2.51875C3.82131 2.43208 3.94527 2.35083 4.07463 2.275C4.20398 2.19917 4.33333 2.13417 4.46269 2.08L4.72139 0H8.27861L8.53731 2.08C8.67745 2.13417 8.8096 2.19917 8.93378 2.275C9.05796 2.35083 9.17912 2.43208 9.29727 2.51875L11.2214 1.70625L13 4.79375L11.3346 6.06125C11.3454 6.13708 11.3507 6.21032 11.3507 6.28095V6.71905C11.3507 6.78968 11.34 6.86292 11.3184 6.93875L12.9838 8.20625L11.2052 11.2937L9.29727 10.4812C9.17869 10.5679 9.05473 10.6492 8.92537 10.725C8.79602 10.8008 8.66667 10.8658 8.53731 10.92L8.27861 13H4.72139ZM6.53234 8.775C7.15755 8.775 7.69113 8.55292 8.13309 8.10875C8.57504 7.66458 8.79602 7.12833 8.79602 6.5C8.79602 5.87167 8.57504 5.33542 8.13309 4.89125C7.69113 4.44708 7.15755 4.225 6.53234 4.225C5.89635 4.225 5.35997 4.44708 4.92318 4.89125C4.4864 5.33542 4.26823 5.87167 4.26866 6.5C4.26866 7.12833 4.48683 7.66458 4.92318 8.10875C5.35954 8.55292 5.89592 8.775 6.53234 8.775ZM6.53234 7.475C6.26285 7.475 6.03368 7.3801 5.84483 7.1903C5.65597 7.0005 5.56176 6.7704 5.56219 6.5C5.56219 6.22917 5.65662 5.99885 5.84547 5.80905C6.03433 5.61925 6.26328 5.52457 6.53234 5.525C6.80183 5.525 7.031 5.6199 7.21985 5.8097C7.40871 5.9995 7.50292 6.2296 7.50249 6.5C7.50249 6.77083 7.40806 7.00115 7.21921 7.19095C7.03035 7.38075 6.80139 7.47543 6.53234 7.475ZM5.85323 11.7H7.1306L7.35697 9.9775C7.69113 9.89083 8.00115 9.76343 8.28702 9.5953C8.57289 9.42717 8.83418 9.22415 9.0709 8.98625L10.6716 9.6525L11.3022 8.5475L9.91169 7.49125C9.96559 7.33958 10.0033 7.1799 10.0249 7.0122C10.0464 6.8445 10.0572 6.67377 10.0572 6.5C10.0572 6.32667 10.0464 6.15615 10.0249 5.98845C10.0033 5.82075 9.96559 5.66085 9.91169 5.50875L11.3022 4.4525L10.6716 3.3475L9.0709 4.03C8.83375 3.78083 8.57246 3.5724 8.28702 3.4047C8.00158 3.237 7.69156 3.1096 7.35697 3.0225L7.14677 1.3H5.8694L5.64304 3.0225C5.30887 3.10917 4.99907 3.23657 4.71363 3.4047C4.42819 3.57283 4.16668 3.77585 3.9291 4.01375L2.32836 3.3475L1.69776 4.4525L3.08831 5.4925C3.03441 5.655 2.99668 5.8175 2.97513 5.98C2.95357 6.1425 2.94279 6.31583 2.94279 6.5C2.94279 6.67333 2.95357 6.84125 2.97513 7.00375C2.99668 7.16625 3.03441 7.32875 3.08831 7.49125L1.69776 8.5475L2.32836 9.6525L3.9291 8.97C4.16625 9.21917 4.42776 9.42782 4.71363 9.59595C4.9995 9.76408 5.3093 9.89127 5.64304 9.9775L5.85323 11.7Z" fill="#9DACC3"/>
</svg>
