<svg width="13" height="13" viewBox="0 0 13 13" fill="none" xmlns="http://www.w3.org/2000/svg">
<path d="M6.49189 8.48583e-07C2.91215 8.48583e-07 0 2.91579 0 6.5C0 10.0842 2.91215 13 6.49189 13C8.6829 13 10.6251 11.9102 11.8006 10.2408L10.9215 9.61458C10.4225 10.3267 9.75928 10.9078 8.98815 11.3085C8.21701 11.7093 7.36071 11.9179 6.49189 11.9167C3.4975 11.9167 1.08198 9.49813 1.08198 6.5C1.08198 3.50188 3.4975 1.08333 6.49189 1.08333C7.36067 1.08232 8.21689 1.29103 8.98799 1.69177C9.75909 2.09251 10.4223 2.67347 10.9215 3.38542L11.8006 2.75925C11.2019 1.90643 10.407 1.21046 9.48296 0.730192C8.55893 0.249923 7.533 -0.00053204 6.49189 8.48583e-07ZM10.4649 3.94388L9.68697 4.72279L10.9215 5.95833H4.32792V7.04167H10.9215L9.68697 8.27721L10.4649 9.05613L12.6289 6.88946L13 6.5L12.6283 6.11054L10.4649 3.94388Z" fill="#9DACC3"/>
</svg>
