<svg width="99" height="88" viewBox="0 0 99 88" fill="none" xmlns="http://www.w3.org/2000/svg">
<path d="M73.296 13.6366H64.2051V20.4548C64.2051 21.1114 64.0758 21.7616 63.8245 22.3682C63.5732 22.9748 63.2049 23.526 62.7406 23.9903C62.2763 24.4546 61.7251 24.8229 61.1185 25.0742C60.5119 25.3255 59.8617 25.4548 59.2051 25.4548C58.5485 25.4548 57.8983 25.3255 57.2917 25.0742C56.685 24.8229 56.1338 24.4546 55.6696 23.9903C55.2053 23.526 54.837 22.9748 54.5857 22.3682C54.3344 21.7616 54.2051 21.1114 54.2051 20.4548V13.6366H27.7278V20.4548C27.7278 21.7809 27.201 23.0526 26.2633 23.9903C25.3257 24.928 24.0539 25.4548 22.7278 25.4548C21.4017 25.4548 20.13 24.928 19.1923 23.9903C18.2546 23.0526 17.7278 21.7809 17.7278 20.4548V13.6366H8.6369C8.09605 13.6305 7.55945 13.7328 7.05884 13.9377C6.55824 14.1425 6.1038 14.4456 5.72239 14.8292C5.34098 15.2127 5.04036 15.6688 4.8383 16.1705C4.63624 16.6723 4.53684 17.2094 4.54599 17.7503V68.6139C4.53696 69.1452 4.63269 69.673 4.82769 70.1673C5.02269 70.6616 5.31316 71.1126 5.6825 71.4946C6.05184 71.8766 6.49281 72.1821 6.98024 72.3936C7.46766 72.6052 7.99199 72.7186 8.52327 72.7275H73.296C73.8273 72.7186 74.3516 72.6052 74.839 72.3936C75.3264 72.1821 75.7674 71.8766 76.1368 71.4946C76.5061 71.1126 76.7966 70.6616 76.9916 70.1673C77.1866 69.673 77.2823 69.1452 77.2733 68.6139V17.7503C77.2823 17.219 77.1866 16.6911 76.9916 16.1968C76.7966 15.7026 76.5061 15.2515 76.1368 14.8695C75.7674 14.4875 75.3264 14.182 74.839 13.9705C74.3516 13.7589 73.8273 13.6455 73.296 13.6366ZM22.7278 59.0912H18.1824V54.5457H22.7278V59.0912ZM22.7278 47.7275H18.1824V43.1821H22.7278V47.7275ZM22.7278 36.3639H18.1824V31.8184H22.7278V36.3639ZM36.3642 59.0912H31.8187V54.5457H36.3642V59.0912ZM36.3642 47.7275H31.8187V43.1821H36.3642V47.7275ZM36.3642 36.3639H31.8187V31.8184H36.3642V36.3639ZM50.0005 59.0912H45.4551V54.5457H50.0005V59.0912ZM50.0005 47.7275H45.4551V43.1821H50.0005V47.7275ZM50.0005 36.3639H45.4551V31.8184H50.0005V36.3639ZM63.6369 59.0912H59.0914V54.5457H63.6369V59.0912ZM63.6369 47.7275H59.0914V43.1821H63.6369V47.7275ZM63.6369 36.3639H59.0914V31.8184H63.6369V36.3639Z" fill="#5F5F5F" fill-opacity="0.8"/>
<path d="M22.7273 22.7272C23.3301 22.7272 23.9082 22.4878 24.3344 22.0616C24.7606 21.6353 25 21.0573 25 20.4545V6.81814C25 6.21537 24.7606 5.6373 24.3344 5.21108C23.9082 4.78486 23.3301 4.54541 22.7273 4.54541C22.1246 4.54541 21.5465 4.78486 21.1203 5.21108C20.694 5.6373 20.4546 6.21537 20.4546 6.81814V20.4545C20.4546 21.0573 20.694 21.6353 21.1203 22.0616C21.5465 22.4878 22.1246 22.7272 22.7273 22.7272Z" fill="#5F5F5F"/>
<path d="M59.0911 22.7272C59.6939 22.7272 60.2719 22.4878 60.6981 22.0616C61.1244 21.6353 61.3638 21.0573 61.3638 20.4545V6.81814C61.3638 6.21537 61.1244 5.6373 60.6981 5.21108C60.2719 4.78486 59.6939 4.54541 59.0911 4.54541C58.4883 4.54541 57.9102 4.78486 57.484 5.21108C57.0578 5.6373 56.8184 6.21537 56.8184 6.81814V20.4545C56.8184 21.0573 57.0578 21.6353 57.484 22.0616C57.9102 22.4878 58.4883 22.7272 59.0911 22.7272Z" fill="#5F5F5F"/>
<g clip-path="url(#clip0_1211_103)">
<path d="M84 58C92.2845 58 99 64.7155 99 73C99 81.2845 92.2845 88 84 88C75.7155 88 69 81.2845 69 73C69 64.7155 75.7155 58 84 58ZM82.605 66.3715C82.3273 66.3715 82.061 66.4818 81.8647 66.6782C81.6683 66.8745 81.558 67.1408 81.558 67.4185V75.79C81.558 76.369 82.026 76.837 82.605 76.837H90.9765C91.1172 76.8423 91.2576 76.8192 91.3892 76.769C91.5208 76.7189 91.6409 76.6426 91.7423 76.545C91.8438 76.4473 91.9245 76.3301 91.9796 76.2006C92.0347 76.071 92.0631 75.9316 92.0631 75.7908C92.0631 75.6499 92.0347 75.5105 91.9796 75.3809C91.9245 75.2514 91.8438 75.1342 91.7423 75.0365C91.6409 74.9389 91.5208 74.8626 91.3892 74.8125C91.2576 74.7623 91.1172 74.7392 90.9765 74.7445H83.6505V67.4185C83.6505 67.1411 83.5404 66.875 83.3444 66.6787C83.1483 66.4824 82.8824 66.3719 82.605 66.3715Z" fill="#2B8FB1"/>
</g>
<defs>
<clipPath id="clip0_1211_103">
<rect width="30" height="30" fill="white" transform="translate(69 58)"/>
</clipPath>
</defs>
</svg>
