<svg width="75" height="45" viewBox="0 0 75 45" fill="none" xmlns="http://www.w3.org/2000/svg">
<rect x="0.4" y="0.4" width="74.1355" height="44.2" rx="22.1" fill="white"/>
<rect x="0.4" y="0.4" width="74.1355" height="44.2" rx="22.1" stroke="#5F5F5F" stroke-width="0.8"/>
<path d="M16.8223 22.5H28.1126" stroke="#272727" stroke-width="2" stroke-linecap="round" stroke-linejoin="round"/>
<path d="M16.8223 18.5417H28.1126" stroke="#272727" stroke-width="2" stroke-linecap="round" stroke-linejoin="round"/>
<path d="M16.8223 26.4583H28.1126" stroke="#272727" stroke-width="2" stroke-linecap="round" stroke-linejoin="round"/>
<path d="M51.08 32.2176C47.56 32.2176 44.4483 30.4154 42.632 27.712C42.6742 24.896 48.264 23.3472 51.08 23.3472C53.896 23.3472 59.4858 24.896 59.528 27.712C58.5972 29.098 57.3398 30.2339 55.8666 31.0196C54.3934 31.8053 52.7496 32.2167 51.08 32.2176ZM51.08 12.224C52.2003 12.224 53.2747 12.669 54.0668 13.4612C54.859 14.2533 55.304 15.3277 55.304 16.448C55.304 17.5683 54.859 18.6427 54.0668 19.4348C53.2747 20.227 52.2003 20.672 51.08 20.672C49.9597 20.672 48.8853 20.227 48.0932 19.4348C47.301 18.6427 46.856 17.5683 46.856 16.448C46.856 15.3277 47.301 14.2533 48.0932 13.4612C48.8853 12.669 49.9597 12.224 51.08 12.224ZM51.08 8C49.231 8 47.4001 8.36419 45.6918 9.07178C43.9836 9.77936 42.4314 10.8165 41.1239 12.1239C38.4834 14.7644 37 18.3458 37 22.08C37 25.8142 38.4834 29.3956 41.1239 32.0361C42.4314 33.3435 43.9836 34.3806 45.6918 35.0882C47.4001 35.7958 49.231 36.16 51.08 36.16C54.8142 36.16 58.3956 34.6766 61.0361 32.0361C63.6766 29.3956 65.16 25.8142 65.16 22.08C65.16 14.2938 58.824 8 51.08 8Z" fill="#5F5F5F"/>
</svg>
