<svg width="75" height="71" viewBox="0 0 75 71" fill="none" xmlns="http://www.w3.org/2000/svg">
<path d="M22.2647 0.00305163C23.3633 0.00305163 24.3032 0.11291 25.0844 0.332628C25.8656 0.552346 26.5736 0.845303 27.2084 1.2115C27.8431 1.57769 28.4046 1.9561 28.8929 2.34671C29.3811 2.73732 29.8694 3.11572 30.3577 3.48191C30.8459 3.84811 31.383 4.12886 31.9689 4.32417C32.5548 4.51947 33.2262 4.64154 33.983 4.69036H70.3096C70.9688 4.69036 71.5791 4.81243 72.1406 5.05656C72.7021 5.30069 73.1904 5.63026 73.6054 6.04529C74.0204 6.46031 74.3622 6.96078 74.6308 7.54669C74.8993 8.1326 75.0214 8.74293 74.9969 9.37767V23.4396H70.3096V9.37767H33.983C33.2262 9.37767 32.567 9.48753 32.0055 9.70725C31.444 9.92697 30.9069 10.2199 30.3943 10.5861C29.8816 10.9523 29.3811 11.3307 28.8929 11.7213C28.4046 12.1119 27.8553 12.4903 27.245 12.8565C26.6347 13.2227 25.9267 13.5035 25.121 13.6988C24.3154 13.8941 23.3633 14.0162 22.2647 14.065H4.68731V56.2508H9.37462V60.9381H0V4.69036C0 4.03121 0.122065 3.42088 0.366196 2.85938C0.610327 2.29788 0.939903 1.80962 1.35493 1.3946C1.76995 0.979574 2.27042 0.637792 2.85633 0.369248C3.44224 0.100704 4.05257 -0.0213614 4.68731 0.00305163H22.2647ZM22.2647 9.37767C22.8506 9.37767 23.3633 9.32885 23.8027 9.23119C24.2422 9.13354 24.645 8.97486 25.0112 8.75514C25.3774 8.53542 25.7314 8.29129 26.0732 8.02275C26.4149 7.7542 26.8055 7.42463 27.245 7.03402C26.83 6.66782 26.4516 6.35045 26.1098 6.08191C25.768 5.81336 25.4018 5.56923 25.0112 5.34951C24.6206 5.1298 24.2178 4.97111 23.8027 4.87346C23.3877 4.77581 22.875 4.71477 22.2647 4.69036H4.68731V9.37767H22.2647ZM74.9969 28.1269V70.3127H14.0619V28.1269H74.9969ZM70.3096 32.8142H18.7492V65.6254H70.3096V32.8142ZM37.4985 42.1888H23.4365V37.5015H37.4985V42.1888ZM28.1239 46.8762H37.4985V51.5635H28.1239V46.8762ZM28.1239 56.2508H37.4985V60.9381H28.1239V56.2508ZM65.6223 60.9381H42.1858V37.5015H65.6223V60.9381ZM60.935 42.1888H46.8731V56.2508H60.935V42.1888Z" fill="#77B255"/>
</svg>
